<?xml version="1.0" standalone="no"?>
<!DOCTYPE svg PUBLIC "-//W3C//DTD SVG 20010904//EN"
 "http://www.w3.org/TR/2001/REC-SVG-20010904/DTD/svg10.dtd">
<svg version="1.0" xmlns="http://www.w3.org/2000/svg"
 width="184.000000pt" height="19.000000pt" viewBox="0 0 184.000000 19.000000"
 preserveAspectRatio="xMidYMid meet">

<g transform="translate(0.000000,19.000000) scale(0.100000,-0.100000)"
fill="#000000" stroke="none">
<path d="M23 148 c2 -7 10 -39 17 -71 21 -90 58 -66 58 38 l0 40 -11 -42 c-17
-60 -24 -61 -32 -4 -5 36 -11 51 -22 51 -8 0 -13 -6 -10 -12z"/>
<path d="M110 136 c0 -46 22 -116 36 -116 12 0 25 35 40 108 4 20 2 32 -4 32
-6 0 -16 -26 -23 -57 l-12 -58 -13 53 c-14 62 -24 77 -24 38z"/>
<path d="M230 90 c0 -40 4 -70 10 -70 6 0 10 30 10 70 0 40 -4 70 -10 70 -6 0
-10 -30 -10 -70z"/>
<path d="M260 150 c0 -5 11 -10 25 -10 14 0 25 5 25 10 0 6 -11 10 -25 10 -14
0 -25 -4 -25 -10z"/>
<path d="M385 150 c-6 -10 -45 -120 -45 -127 0 -3 5 -3 12 -1 6 2 19 26 28 53
l16 49 19 -52 c11 -29 23 -52 27 -52 12 0 10 10 -13 78 -20 60 -31 73 -44 52z"/>
<path d="M480 150 c0 -5 9 -10 20 -10 18 0 20 -7 20 -60 0 -33 4 -60 10 -60 6
0 10 27 10 60 0 53 2 60 20 60 11 0 20 5 20 10 0 6 -22 10 -50 10 -27 0 -50
-4 -50 -10z"/>
<path d="M610 90 c0 -40 4 -70 10 -70 6 0 10 30 10 70 0 40 -4 70 -10 70 -6 0
-10 -30 -10 -70z"/>
<path d="M690 130 c0 -25 -4 -30 -25 -30 -14 0 -25 -4 -25 -10 0 -5 11 -10 25
-10 21 0 25 -5 25 -30 0 -16 5 -30 10 -30 6 0 10 30 10 70 0 40 -4 70 -10 70
-5 0 -10 -13 -10 -30z"/>
<path d="M750 90 c0 -40 4 -70 10 -70 6 0 10 30 10 70 0 40 -4 70 -10 70 -6 0
-10 -30 -10 -70z"/>
<path d="M780 150 c0 -5 11 -10 25 -10 14 0 25 5 25 10 0 6 -11 10 -25 10 -14
0 -25 -4 -25 -10z"/>
<path d="M862 93 c2 -42 8 -68 16 -71 9 -3 12 14 12 63 0 63 1 65 20 55 24
-13 26 -36 4 -48 -13 -7 -13 -12 3 -40 25 -44 46 -44 22 0 -8 14 -8 23 0 31
32 32 1 77 -54 77 -26 0 -26 -1 -23 -67z"/>
<path d="M994 128 c24 -121 47 -141 65 -58 12 56 14 97 5 87 -3 -3 -11 -29
-18 -59 l-13 -53 -12 58 c-7 31 -17 57 -23 57 -6 0 -8 -12 -4 -32z"/>
<path d="M1126 118 c-10 -64 -19 -67 -32 -13 -11 49 -12 49 -13 14 -3 -98 32
-132 55 -54 24 85 25 95 10 95 -8 0 -16 -16 -20 -42z"/>
<path d="M1225 148 c-37 -101 -43 -128 -29 -128 7 0 14 7 14 15 0 10 10 15 29
15 16 0 31 -6 35 -15 3 -8 10 -15 15 -15 13 0 -32 133 -47 138 -7 2 -14 -2
-17 -10z m25 -47 c0 -5 2 -16 5 -23 4 -9 -2 -14 -15 -14 -13 0 -19 5 -15 14 3
7 5 18 5 23 0 5 5 9 10 9 6 0 10 -4 10 -9z"/>
<path d="M1330 90 c0 -40 4 -70 10 -70 6 0 10 30 10 70 0 40 -4 70 -10 70 -6
0 -10 -30 -10 -70z"/>
<path d="M1360 150 c0 -5 7 -10 15 -10 9 0 15 -9 15 -25 0 -16 -6 -25 -15 -25
-20 0 -19 -5 7 -40 27 -37 43 -39 24 -3 -12 23 -12 30 0 48 12 18 11 24 -2 43
-15 22 -44 30 -44 12z"/>
<path d="M1450 90 c0 -40 4 -70 10 -70 6 0 10 30 10 70 0 40 -4 70 -10 70 -6
0 -10 -30 -10 -70z"/>
<path d="M1480 150 c0 -5 14 -10 30 -10 17 0 30 5 30 10 0 6 -13 10 -30 10
-16 0 -30 -4 -30 -10z"/>
<path d="M1685 150 c-4 -6 -4 -14 -1 -17 3 -4 6 -1 6 5 0 7 9 12 20 12 24 0
27 -28 3 -45 -24 -18 -7 -35 36 -35 35 0 61 -14 61 -32 0 -4 -45 -8 -100 -8
-55 0 -100 4 -100 8 0 16 24 32 50 33 24 2 24 2 2 6 -25 5 -62 -21 -62 -44 0
-10 25 -13 110 -13 85 0 110 3 110 13 0 24 -36 47 -73 47 -38 0 -49 13 -21 24
23 9 14 50 -13 54 -11 2 -24 -2 -28 -8z"/>
<path d="M260 90 c0 -5 9 -10 19 -10 11 0 23 5 26 10 4 6 -5 10 -19 10 -14 0
-26 -4 -26 -10z"/>
<path d="M780 90 c0 -5 11 -10 25 -10 14 0 25 5 25 10 0 6 -11 10 -25 10 -14
0 -25 -4 -25 -10z"/>
<path d="M1480 90 c0 -5 11 -10 25 -10 14 0 25 5 25 10 0 6 -11 10 -25 10 -14
0 -25 -4 -25 -10z"/>
<path d="M385 60 c-3 -5 1 -10 9 -10 9 0 16 5 16 10 0 6 -4 10 -9 10 -6 0 -13
-4 -16 -10z"/>
<path d="M260 30 c0 -5 11 -10 25 -10 14 0 25 5 25 10 0 6 -11 10 -25 10 -14
0 -25 -4 -25 -10z"/>
<path d="M780 30 c0 -5 11 -10 25 -10 14 0 25 5 25 10 0 6 -11 10 -25 10 -14
0 -25 -4 -25 -10z"/>
<path d="M1480 30 c0 -5 14 -10 30 -10 17 0 30 5 30 10 0 6 -13 10 -30 10 -16
0 -30 -4 -30 -10z"/>
</g>
</svg>
